Coordinates
version=1
nRows=41
nColumns=38
inDegrees=no

Units are S.I. units (second, meters, Newtons, ...)
If the header above contains a line with 'inDegrees', this indicates whether rotational values are in degrees (yes) or radians (no).

endheader
time	pelvis_tilt	pelvis_list	pelvis_rotation	pelvis_tx	pelvis_ty	pelvis_tz	hip_flexion_r	hip_adduction_r	hip_rotation_r	knee_angle_r	ankle_angle_r	subtalar_angle_r	mtp_angle_r	hip_flexion_l	hip_adduction_l	hip_rotation_l	knee_angle_l	ankle_angle_l	subtalar_angle_l	mtp_angle_l	lumbar_extension	lumbar_bending	lumbar_rotation	arm_flex_r	arm_add_r	arm_rot_r	elbow_flex_r	pro_sup_r	wrist_flex_r	wrist_dev_r	arm_flex_l	arm_add_l	arm_rot_l	elbow_flex_l	pro_sup_l	wrist_flex_l	wrist_dev_l
45	2.28083	1.54288	-0.565958	0.622326	0.375331	1.06545	0.0755219	-0.073229	-0.219342	0.2667	-0.320483	0	0	-0.00606422	-0.186492	-0.275112	0.177653	-0.295493	0	0	-0.196096	0.0212953	-0.0753684	0.938241	-0.514684	1.2607	0.822235	1.5708	0	0	0.383537	-0.443301	0.143672	1.1446	0.76896	0	0
45.01	2.2947	1.54281	-0.583343	0.622796	0.376036	1.06535	0.0768673	-0.0732587	-0.215311	0.270496	-0.319483	0	0	-0.00811614	-0.186746	-0.27713	0.177736	-0.29517	0	0	-0.192119	0.0202451	-0.0726879	0.938728	-0.513832	1.26555	0.821276	1.5708	0	0	0.382276	-0.444254	0.145033	1.14379	0.767617	0	0
45.02	2.3895	1.53985	-0.679427	0.622455	0.376848	1.06595	0.0719726	-0.0730642	-0.217046	0.270716	-0.320097	0	0	-0.014688	-0.186749	-0.278219	0.175704	-0.295511	0	0	-0.192873	0.021343	-0.0717739	0.93977	-0.514527	1.26925	0.821115	1.5708	0	0	0.381287	-0.443451	0.145446	1.14274	0.767494	0	0
45.03	2.43095	1.53788	-0.722862	0.622388	0.377581	1.06633	0.068974	-0.072296	-0.215521	0.270413	-0.320323	0	0	-0.0193936	-0.186923	-0.278997	0.173929	-0.29571	0	0	-0.192155	0.0218858	-0.0702704	0.940025	-0.514694	1.27161	0.82083	1.5708	0	0	0.380158	-0.443012	0.145629	1.14191	0.76759	0	0
45.04	2.47154	1.53609	-0.765223	0.622304	0.378303	1.06668	0.06607	-0.0718311	-0.214407	0.270435	-0.320209	0	0	-0.024165	-0.18672	-0.279702	0.171826	-0.295926	0	0	-0.191636	0.0222428	-0.0690332	0.940296	-0.51488	1.2735	0.820587	1.5708	0	0	0.379025	-0.442563	0.14566	1.1412	0.76763	0	0
45.05	2.50465	1.53458	-0.799996	0.622231	0.378988	1.06698	0.0636018	-0.0715716	-0.213133	0.270572	-0.319954	0	0	-0.02858	-0.186335	-0.280607	0.169617	-0.296055	0	0	-0.191101	0.0223137	-0.0680064	0.940401	-0.514693	1.27504	0.820156	1.5708	0	0	0.377788	-0.442251	0.145579	1.14091	0.767251	0	0
45.06	2.52694	1.53344	-0.823853	0.622167	0.379599	1.0672	0.0618785	-0.0714457	-0.211733	0.271012	-0.31962	0	0	-0.0320643	-0.18602	-0.281644	0.168001	-0.295918	0	0	-0.190518	0.0224517	-0.0669772	0.940864	-0.514845	1.27663	0.819817	1.5708	0	0	0.376656	-0.442014	0.145635	1.14089	0.766759	0	0
45.07	2.53779	1.5327	-0.836365	0.622147	0.380139	1.06731	0.0609482	-0.0712125	-0.209963	0.271508	-0.319064	0	0	-0.0345597	-0.185912	-0.283198	0.167077	-0.295602	0	0	-0.189631	0.0224765	-0.0659039	0.940994	-0.51469	1.27762	0.819363	1.5708	0	0	0.375523	-0.442011	0.145764	1.1411	0.766064	0	0
45.08	2.53803	1.53253	-0.838385	0.622181	0.380604	1.06734	0.0612021	-0.0711514	-0.208084	0.27267	-0.318243	0	0	-0.0360162	-0.18577	-0.285113	0.16662	-0.295149	0	0	-0.188274	0.0222327	-0.0647602	0.940554	-0.514085	1.27767	0.818763	1.5708	0	0	0.37443	-0.442202	0.145937	1.14148	0.765058	0	0
45.09	2.53226	1.53266	-0.834337	0.622252	0.380965	1.06729	0.0621815	-0.0711935	-0.206426	0.274321	-0.317238	0	0	-0.0366428	-0.185679	-0.286687	0.166685	-0.294491	0	0	-0.18693	0.0218909	-0.0635474	0.940341	-0.513565	1.27762	0.818022	1.5708	0	0	0.37362	-0.442382	0.146068	1.14205	0.764384	0	0
45.1	2.52283	1.53306	-0.826595	0.622334	0.3812	1.06717	0.0636063	-0.0712921	-0.204875	0.27607	-0.31607	0	0	-0.0363734	-0.185628	-0.287983	0.167548	-0.293509	0	0	-0.185825	0.0215754	-0.0621695	0.940614	-0.513608	1.27755	0.817629	1.5708	0	0	0.373197	-0.44242	0.146206	1.14268	0.764363	0	0
45.11	2.51201	1.53367	-0.817347	0.622439	0.381335	1.06701	0.0656662	-0.071578	-0.203402	0.278653	-0.314613	0	0	-0.0351791	-0.185757	-0.289282	0.169514	-0.292192	0	0	-0.185047	0.0212186	-0.0607796	0.941256	-0.514048	1.27732	0.817576	1.5708	0	0	0.373189	-0.442411	0.146326	1.14326	0.764706	0	0
45.12	2.49441	1.53463	-0.801203	0.622569	0.381394	1.06679	0.0683695	-0.0719395	-0.201649	0.281426	-0.313231	0	0	-0.0329687	-0.186036	-0.290594	0.172388	-0.290609	0	0	-0.184183	0.020768	-0.0594892	0.941691	-0.514464	1.27653	0.817919	1.5708	0	0	0.373369	-0.442347	0.146286	1.14377	0.765462	0	0
45.13	2.4611	1.53629	-0.769396	0.622751	0.381396	1.06647	0.0721425	-0.0723026	-0.198659	0.28434	-0.312057	0	0	-0.0292035	-0.186525	-0.292513	0.176599	-0.288861	0	0	-0.182776	0.02009	-0.058173	0.941737	-0.514909	1.27497	0.818766	1.5708	0	0	0.37347	-0.442316	0.145977	1.1445	0.766295	0	0
45.14	2.38902	1.53863	-0.700716	0.623565	0.380967	1.06593	0.0785835	-0.0713763	-0.19011	0.287458	-0.311908	0	0	-0.0241068	-0.187523	-0.292615	0.180214	-0.287881	0	0	-0.181391	0.0189476	-0.0551484	0.94315	-0.514933	1.27405	0.819883	1.5708	0	0	0.37441	-0.443211	0.145429	1.14605	0.766818	0	0
45.15	2.53638	1.5327	-0.844283	0.622548	0.38124	1.06689	0.0676589	-0.072222	-0.201165	0.284839	-0.313349	0	0	-0.0314665	-0.187895	-0.292612	0.181374	-0.287835	0	0	-0.190975	0.020924	-0.058269	0.945341	-0.517293	1.2738	0.822155	1.5708	0	0	0.376365	-0.441584	0.145065	1.14621	0.767765	0	0
45.16	2.55445	1.53138	-0.861827	0.622347	0.381119	1.06707	0.0664956	-0.0723327	-0.202367	0.285537	-0.31359	0	0	-0.031637	-0.188415	-0.292003	0.183523	-0.287668	0	0	-0.19416	0.0215005	-0.0585133	0.946669	-0.518157	1.27293	0.822899	1.5708	0	0	0.378144	-0.440797	0.145131	1.14595	0.768186	0	0
45.17	2.58034	1.52966	-0.886939	0.622144	0.380956	1.06728	0.0645969	-0.0724909	-0.204124	0.285834	-0.314131	0	0	-0.0320465	-0.189004	-0.291607	0.186247	-0.28721	0	0	-0.198218	0.0222023	-0.0597406	0.949767	-0.518121	1.27525	0.822939	1.5708	0	0	0.379252	-0.440418	0.143963	1.14633	0.768862	0	0
45.18	2.60564	1.52798	-0.911473	0.621953	0.380779	1.06749	0.062445	-0.0725892	-0.205904	0.285573	-0.315035	0	0	-0.0325102	-0.189466	-0.291225	0.188834	-0.286521	0	0	-0.202664	0.022726	-0.060897	0.952492	-0.51839	1.27661	0.823801	1.5708	0	0	0.380359	-0.439911	0.142372	1.14698	0.769926	0	0
45.19	2.62019	1.52699	-0.925462	0.621814	0.380614	1.06762	0.0614523	-0.072738	-0.207155	0.286	-0.315498	0	0	-0.0323312	-0.189719	-0.290616	0.191028	-0.286031	0	0	-0.206272	0.0228932	-0.0618436	0.953927	-0.518405	1.27589	0.82474	1.5708	0	0	0.381405	-0.43946	0.140985	1.1475	0.770684	0	0
45.2	2.62715	1.52655	-0.932103	0.621729	0.380445	1.06768	0.0615519	-0.0730046	-0.207978	0.287243	-0.315633	0	0	-0.0316038	-0.18989	-0.289938	0.193025	-0.285451	0	0	-0.209483	0.0229652	-0.0625528	0.955173	-0.518672	1.27441	0.826029	1.5708	0	0	0.382339	-0.439135	0.139541	1.14814	0.771596	0	0
45.21	2.62423	1.52677	-0.929037	0.62171	0.38027	1.06765	0.0628358	-0.073342	-0.208346	0.288849	-0.315663	0	0	-0.0299103	-0.190154	-0.289026	0.19516	-0.284997	0	0	-0.212111	0.0228621	-0.0630888	0.956616	-0.519105	1.2732	0.827315	1.5708	0	0	0.383142	-0.439081	0.138177	1.14903	0.77248	0	0
45.22	2.61019	1.52757	-0.915147	0.621766	0.380082	1.06754	0.0653552	-0.0735305	-0.207978	0.291087	-0.315512	0	0	-0.027209	-0.190617	-0.288483	0.197919	-0.284118	0	0	-0.213886	0.0227106	-0.0633624	0.958155	-0.519179	1.27256	0.827754	1.5708	0	0	0.383866	-0.439098	0.13707	1.14966	0.773524	0	0
45.23	2.58544	1.52899	-0.890887	0.621898	0.379883	1.06737	0.0689943	-0.0736144	-0.206628	0.293713	-0.315154	0	0	-0.0237748	-0.191005	-0.288302	0.200559	-0.283449	0	0	-0.214744	0.0223259	-0.0634075	0.95918	-0.518671	1.27181	0.827665	1.5708	0	0	0.384263	-0.439057	0.135775	1.15025	0.774557	0	0
45.24	2.55533	1.53072	-0.861469	0.622082	0.379668	1.06715	0.0733674	-0.0738711	-0.204684	0.29663	-0.314819	0	0	-0.0200834	-0.191291	-0.288317	0.203132	-0.282635	0	0	-0.215081	0.0216251	-0.0633049	0.959753	-0.517582	1.27092	0.826921	1.5708	0	0	0.384602	-0.439102	0.134666	1.15064	0.775216	0	0
45.25	2.51613	1.53288	-0.823085	0.622311	0.379453	1.06686	0.0786995	-0.0743402	-0.202487	0.300344	-0.314142	0	0	-0.0157905	-0.19153	-0.288708	0.205895	-0.28186	0	0	-0.214856	0.0207106	-0.0631887	0.960016	-0.516186	1.26984	0.82591	1.5708	0	0	0.384711	-0.43934	0.133595	1.15108	0.775832	0	0
45.26	2.40518	1.53722	-0.7148	0.622997	0.379016	1.06615	0.0893843	-0.0743092	-0.195212	0.306619	-0.312553	0	0	-0.00761883	-0.192133	-0.289712	0.209921	-0.280614	0	0	-0.211713	0.019226	-0.0612902	0.960478	-0.514697	1.26887	0.824607	1.5708	0	0	0.384738	-0.440058	0.132698	1.15167	0.776051	0	0
45.27	2.44205	1.53562	-0.749547	0.622451	0.379079	1.06649	0.0875563	-0.0752983	-0.201425	0.308312	-0.3119	0	0	-0.0084877	-0.192521	-0.290701	0.211809	-0.279841	0	0	-0.216336	0.020098	-0.0635889	0.961409	-0.514483	1.26841	0.824017	1.5708	0	0	0.385075	-0.439302	0.131657	1.15177	0.776817	0	0
45.28	2.44342	1.53503	-0.750419	0.622307	0.378892	1.06662	0.0883373	-0.0755299	-0.203184	0.31025	-0.31224	0	0	-0.00788924	-0.193094	-0.291106	0.213212	-0.279452	0	0	-0.220103	0.0204413	-0.0646146	0.962699	-0.513846	1.26783	0.82371	1.5708	0	0	0.385288	-0.439089	0.130032	1.1528	0.777897	0	0
45.29	2.44039	1.53461	-0.747028	0.622208	0.37868	1.06669	0.0895815	-0.075782	-0.204748	0.312482	-0.312689	0	0	-0.00699622	-0.193679	-0.291564	0.214595	-0.279326	0	0	-0.223813	0.0208048	-0.0655149	0.964291	-0.513287	1.2675	0.823369	1.5708	0	0	0.38544	-0.438887	0.128166	1.15398	0.778928	0	0
45.3	2.42629	1.53444	-0.732776	0.622171	0.378414	1.06668	0.0917458	-0.0759181	-0.206138	0.315371	-0.312917	0	0	-0.00537356	-0.194497	-0.292005	0.216371	-0.279244	0	0	-0.227174	0.0211971	-0.066409	0.965903	-0.512231	1.26736	0.82274	1.5708	0	0	0.385337	-0.438725	0.125862	1.15529	0.77976	0	0
45.31	2.40137	1.53441	-0.707914	0.622202	0.378074	1.0666	0.0946761	-0.0759062	-0.206863	0.318532	-0.313099	0	0	-0.00315233	-0.19557	-0.292159	0.2184	-0.278992	0	0	-0.230333	0.0218586	-0.0668782	0.968282	-0.511656	1.26883	0.822436	1.5708	0	0	0.38561	-0.438602	0.124156	1.15611	0.780326	0	0
45.32	2.368	1.53445	-0.674871	0.622312	0.377668	1.06646	0.0986045	-0.0758219	-0.207051	0.322824	-0.31301	0	0	-0.000245509	-0.197007	-0.292754	0.221237	-0.278365	0	0	-0.233448	0.0225839	-0.0670941	0.970967	-0.511076	1.27108	0.822347	1.5708	0	0	0.386064	-0.438621	0.12248	1.15683	0.780503	0	0
45.33	2.32819	1.53476	-0.635596	0.62248	0.377198	1.06626	0.103218	-0.0757778	-0.206344	0.327447	-0.312757	0	0	0.00331826	-0.198473	-0.29337	0.224543	-0.27758	0	0	-0.23625	0.0228667	-0.0671913	0.972632	-0.509924	1.27062	0.821141	1.5708	0	0	0.386756	-0.438769	0.120941	1.15735	0.780384	0	0
45.34	2.27359	1.53552	-0.58174	0.622722	0.376628	1.06595	0.109165	-0.0759297	-0.205132	0.332872	-0.312002	0	0	0.00815598	-0.19999	-0.29403	0.228817	-0.276229	0	0	-0.238712	0.0228695	-0.0672416	0.974173	-0.508725	1.26958	0.820494	1.5708	0	0	0.387425	-0.439199	0.119196	1.15821	0.780085	0	0
45.35	2.20748	1.53633	-0.516531	0.623006	0.375965	1.06558	0.115667	-0.0759914	-0.203417	0.338366	-0.31113	0	0	0.0136555	-0.201672	-0.294466	0.233476	-0.274791	0	0	-0.241187	0.0229475	-0.0669892	0.976073	-0.507959	1.26906	0.820622	1.5708	0	0	0.388453	-0.439668	0.117813	1.15898	0.779803	0	0
45.36	2.12195	1.53718	-0.432019	0.623342	0.375219	1.06512	0.123243	-0.0759542	-0.201352	0.344617	-0.309976	0	0	0.020138	-0.20362	-0.294833	0.238745	-0.273136	0	0	-0.243446	0.0229644	-0.066696	0.977967	-0.50714	1.26824	0.820903	1.5708	0	0	0.38951	-0.440197	0.116222	1.1599	0.779801	0	0
45.37	2.00782	1.5381	-0.319086	0.623752	0.374402	1.06452	0.132157	-0.0758507	-0.198629	0.351462	-0.308496	0	0	0.0276672	-0.205568	-0.295202	0.244171	-0.271345	0	0	-0.244893	0.0226867	-0.0663153	0.979174	-0.505925	1.26638	0.820972	1.5708	0	0	0.390478	-0.440627	0.114206	1.16072	0.780533	0	0
45.38	1.87212	1.53887	-0.18478	0.624234	0.373519	1.06384	0.141825	-0.0758081	-0.195317	0.358176	-0.307209	0	0	0.0357332	-0.207252	-0.295506	0.249311	-0.26981	0	0	-0.245784	0.022012	-0.0657591	0.979855	-0.504336	1.264	0.820807	1.5708	0	0	0.391637	-0.441057	0.112342	1.16119	0.781299	0	0
45.39	1.71155	1.53924	-0.0256948	0.624785	0.372569	1.06306	0.152747	-0.0759137	-0.191547	0.365807	-0.305449	0	0	0.0448277	-0.208977	-0.296019	0.255075	-0.267982	0	0	-0.246232	0.021086	-0.065067	0.980916	-0.50274	1.26235	0.820416	1.5708	0	0	0.392982	-0.441527	0.11058	1.16155	0.781916	0	0
45.4	1.7388	1.53874	-0.0510394	0.624588	0.371934	1.06298	0.154355	-0.077073	-0.196768	0.369909	-0.304582	0	0	0.0472842	-0.210405	-0.296335	0.259608	-0.266197	0	0	-0.253089	0.0215276	-0.0676512	0.983624	-0.501578	1.26255	0.819985	1.5708	0	0	0.394403	-0.44162	0.108227	1.16251	0.782839	0	0
